<svg xmlns="http://www.w3.org/2000/svg" width="14" height="18" viewBox="0 0 14 18">
  <g id="Groupe_172" data-name="Groupe 172" transform="translate(-1 1)">
    <path id="Tracé_21" data-name="Tracé 21" d="M2.282.027s2.06-.208,4.283-.208,4.606.208,4.606.208a2.273,2.273,0,0,1,2.25,2.294,27.179,27.179,0,0,1,.322,4.089,44.368,44.368,0,0,1-.322,4.743,2.273,2.273,0,0,1-2.25,2.294,26.677,26.677,0,0,1-4.25.371,35.6,35.6,0,0,1-4.639-.371,2.273,2.273,0,0,1-2.25-2.294S-.257,8.376-.257,6.168A24.555,24.555,0,0,1,.032,2.321,2.273,2.273,0,0,1,2.282.027Z" transform="translate(1.257 1.181)" fill="#fff"/>
    <text id="C" transform="translate(3 13)" fill="#2d3693" font-size="14" font-family="Montserrat-Bold, Montserrat" font-weight="700"><tspan x="0" y="0">C</tspan></text>
  </g>
</svg>
