<svg xmlns="http://www.w3.org/2000/svg" width="153.932" height="50" viewBox="0 0 153.932 50">
  <g id="Groupe_176" data-name="Groupe 176" transform="translate(331.832 -940)">
    <g id="Tracé_21" data-name="Tracé 21" transform="translate(-331.575 945.383)" fill="#fff">
      <path d="M 21.14756011962891 41.51418304443359 C 14.60092926025391 41.51418304443359 7.394149780273438 40.4194221496582 7.32211971282959 40.40836334228516 L 7.318349838256836 40.40778350830078 L 7.314529895782471 40.40778350830078 C 3.642169713973999 40.40778350830078 0.6544796824455261 37.36139297485352 0.6544796824455261 33.61688232421875 L 0.6544796824455261 33.61429214477539 L 0.6542096734046936 33.61171340942383 C 0.6455996632575989 33.52891159057617 -0.2066703140735626 25.25673294067383 -0.2066703140735626 18.75034332275391 C -0.2066703140735626 12.24622344970703 0.6451196670532227 7.336893081665039 0.6537196636199951 7.288063049316406 L 0.6544796824455261 7.283752918243408 L 0.6544796824455261 7.279383182525635 C 0.6544796824455261 3.534862995147705 3.642169713973999 0.4884730577468872 7.314529895782471 0.4884730577468872 L 7.317039489746094 0.4884730577468872 L 7.319549560546875 0.4882230758666992 C 7.380959510803223 0.4820230603218079 13.53674983978271 -0.1311469376087189 20.08441925048828 -0.1311469376087189 C 26.63266944885254 -0.1311469376087189 33.74382019042969 0.4820930659770966 33.81488800048828 0.4882830679416656 C 37.4915885925293 0.4884730577468872 40.47927856445312 3.534862995147705 40.47927856445312 7.279383182525635 L 40.47927856445312 7.283623218536377 L 40.47999954223633 7.287813186645508 C 40.48957824707031 7.343863010406494 41.43865966796875 12.96826267242432 41.43865966796875 19.47268295288086 C 41.43865966796875 25.97844314575195 40.4892692565918 33.5350227355957 40.47967910766602 33.61059188842773 L 40.47927856445312 33.61372375488281 L 40.47927856445312 33.61688232421875 C 40.47927856445312 37.36139297485352 37.4915885925293 40.40778350830078 33.81922912597656 40.40778350830078 L 33.81468963623047 40.40778350830078 L 33.81023025512695 40.40860366821289 C 33.74980926513672 40.41965484619141 27.69305038452148 41.51418304443359 21.14756011962891 41.51418304443359 Z" stroke="none"/>
      <path d="M 20.08441925048828 -0.08115768432617188 C 13.53946876525879 -0.08115768432617188 7.385959625244141 0.5317726135253906 7.324558258056641 0.5379714965820312 L 7.314529418945312 0.5384712219238281 C 3.66973876953125 0.5384712219238281 0.7044792175292969 3.562431335449219 0.7044792175292969 7.279384613037109 L 0.7029609680175781 7.296741485595703 C 0.6943702697753906 7.345523834228516 -0.1566810607910156 12.24991226196289 -0.1566810607910156 18.75034332275391 C -0.1566810607910156 25.25403213500977 0.6953392028808594 33.52376174926758 0.7039413452148438 33.60653305053711 L 0.7044792175292969 33.61687469482422 C 0.7044792175292969 37.33382415771484 3.66973876953125 40.35778427124023 7.314529418945312 40.35778427124023 L 7.329700469970703 40.35894393920898 C 7.401699066162109 40.36999130249023 14.60520935058594 41.46417236328125 21.14756011962891 41.46417236328125 C 27.68812942504883 41.46417236328125 33.74084854125977 40.37046432495117 33.80123138427734 40.35941314697266 L 33.81922912597656 40.35778427124023 C 37.46401977539062 40.35778427124023 40.42927932739258 37.33382415771484 40.42927932739258 33.61687469482422 L 40.43008041381836 33.60428237915039 C 40.43965911865234 33.52874374389648 41.38864898681641 25.97512435913086 41.38864898681641 19.47268295288086 C 41.38864898681641 12.97292327880859 40.44028854370117 7.352252960205078 40.43070983886719 7.296241760253906 L 40.42927932739258 7.279384613037109 C 40.42927932739258 3.562431335449219 37.46401977539062 0.5384712219238281 33.81922912597656 0.5384712219238281 L 33.81055068969727 0.5380935668945312 C 33.73949813842773 0.5319023132324219 26.63051986694336 -0.08115768432617188 20.08441925048828 -0.08115768432617188 M 20.08441925048828 -0.1811561584472656 C 26.71059036254883 -0.1811561584472656 33.81922912597656 0.4384727478027344 33.81922912597656 0.4384727478027344 C 37.52508926391602 0.4384727478027344 40.52928161621094 3.501251220703125 40.52928161621094 7.279384613037109 C 40.52928161621094 7.279384613037109 41.48865127563477 12.88830375671387 41.48865127563477 19.47268295288086 C 41.48865127563477 26.05705261230469 40.52928161621094 33.61687469482422 40.52928161621094 33.61687469482422 C 40.52928161621094 37.39500427246094 37.52508926391602 40.45778274536133 33.81922912597656 40.45778274536133 C 33.81922912597656 40.45778274536133 27.77373886108398 41.56417465209961 21.14756011962891 41.56417465209961 C 14.5213794708252 41.56417465209961 7.314529418945312 40.45778274536133 7.314529418945312 40.45778274536133 C 3.608669281005859 40.45778274536133 0.6044807434082031 37.39500427246094 0.6044807434082031 33.61687469482422 C 0.6044807434082031 33.61687469482422 -0.2566795349121094 25.3347225189209 -0.2566795349121094 18.75034332275391 C -0.2566795349121094 12.16597366333008 0.6044807434082031 7.279384613037109 0.6044807434082031 7.279384613037109 C 0.6044807434082031 3.501251220703125 3.608669281005859 0.4384727478027344 7.314529418945312 0.4384727478027344 C 7.314529418945312 0.4384727478027344 13.45825004577637 -0.1811561584472656 20.08441925048828 -0.1811561584472656 Z" stroke="none" fill="#000"/>
    </g>
    <text id="C" transform="translate(-326 980)" fill="#2d3693" font-size="41" font-family="Montserrat-Bold, Montserrat" font-weight="700"><tspan x="0" y="0">C</tspan></text>
    <g id="Groupe_175" data-name="Groupe 175">
      <text id="reative" transform="translate(-290 978)" fill="#fff" stroke="#080808" stroke-width="0.1" font-size="37" font-family="MicrosoftSansSerif, Microsoft Sans Serif"><tspan x="0" y="0">reative</tspan></text>
      <g id="Groupe_174" data-name="Groupe 174">
        <text id="S" transform="translate(-267 984)" fill="#838383" stroke="#000" stroke-width="0.1" font-size="26" font-family="Microsoft-Yi-Baiti, Microsoft Yi Baiti" font-style="italic"><tspan x="0" y="0">S</tspan></text>
        <text id="u" transform="translate(-243 984)" fill="#838383" stroke="#000" stroke-width="0.1" font-size="26" font-family="Microsoft-Yi-Baiti, Microsoft Yi Baiti" font-style="italic"><tspan x="0" y="0">u</tspan></text>
        <text id="i" transform="translate(-219 984)" fill="#838383" stroke="#000" stroke-width="0.1" font-size="26" font-family="Microsoft-Yi-Baiti, Microsoft Yi Baiti" font-style="italic"><tspan x="0" y="0">i</tspan></text>
        <text id="t" transform="translate(-250 984)" fill="#838383" stroke="#000" stroke-width="0.1" font-size="26" font-family="Microsoft-Yi-Baiti, Microsoft Yi Baiti" font-style="italic"><tspan x="0" y="0">t</tspan></text>
        <text id="d" transform="translate(-231 984)" fill="#838383" stroke="#000" stroke-width="0.1" font-size="26" font-family="Microsoft-Yi-Baiti, Microsoft Yi Baiti" font-style="italic"><tspan x="0" y="0">d</tspan></text>
        <text id="o" transform="translate(-214 984)" fill="#838383" stroke="#000" stroke-width="0.1" font-size="26" font-family="Microsoft-Yi-Baiti, Microsoft Yi Baiti" font-style="italic"><tspan x="0" y="0">o</tspan></text>
      </g>
    </g>
  </g>
</svg>
